<svg width="200" height="37" viewBox="0 0 200 37" fill="none" xmlns="http://www.w3.org/2000/svg">
<g clip-path="url(#clip0_255_67)">
<path d="M79.0434 7.22714H74.8538V25.8165H86.4519V22.174H79.0434V7.22714Z" fill="#0077B6"/>
<path d="M86.8521 19.5112C86.8521 23.4803 89.56 26.1179 93.6474 26.1179C97.7093 26.1179 100.417 23.4803 100.417 19.5112C100.417 15.5421 97.7093 12.8792 93.6474 12.8792C89.56 12.8792 86.8521 15.5421 86.8521 19.5112ZM90.8117 19.486C90.8117 17.602 91.9358 16.346 93.6474 16.346C95.3335 16.346 96.4576 17.602 96.4576 19.486C96.4576 21.3953 95.3335 22.6513 93.6474 22.6513C91.9358 22.6513 90.8117 21.3953 90.8117 19.486Z" fill="#0077B6"/>
<path d="M101.05 19.3102C101.05 23.1034 103.554 25.6657 107.105 25.6657C108.816 25.6657 110.298 25.0628 111.039 24.0831V25.8165C111.039 27.5498 109.94 28.7053 107.999 28.7053C106.262 28.7053 105.061 27.9015 104.984 26.4696H100.999C101.357 29.9112 104.065 32.2222 107.769 32.2222C112.137 32.2222 114.896 29.4339 114.896 25.0125V13.2561H111.345L111.141 14.5372C110.426 13.5073 108.918 12.8291 107.181 12.8291C103.605 12.8291 101.05 15.4667 101.05 19.3102ZM105.035 19.2097C105.035 17.401 106.262 16.1952 107.82 16.1952C109.634 16.1952 110.962 17.3759 110.962 19.2097C110.962 21.0436 109.659 22.2996 107.845 22.2996C106.287 22.2996 105.035 21.0436 105.035 19.2097Z" fill="#0077B6"/>
<path d="M116.043 19.5112C116.043 23.4803 118.751 26.1179 122.839 26.1179C126.901 26.1179 129.608 23.4803 129.608 19.5112C129.608 15.5421 126.901 12.8792 122.839 12.8792C118.751 12.8792 116.043 15.5421 116.043 19.5112ZM120.002 19.486C120.002 17.602 121.126 16.346 122.839 16.346C124.524 16.346 125.648 17.602 125.648 19.486C125.648 21.3953 124.524 22.6513 122.839 22.6513C121.126 22.6513 120.002 21.3953 120.002 19.486Z" fill="#0077B6"/>
<path d="M133 11.2967C134.226 11.2967 135.222 10.317 135.222 9.0861C135.222 7.85519 134.226 6.9006 133 6.9006C131.749 6.9006 130.752 7.85519 130.752 9.0861C130.752 10.317 131.749 11.2967 133 11.2967ZM131.007 25.8165H134.967V13.2562H131.007V25.8165Z" fill="#0077B6"/>
<path d="M137.272 31.8454H141.156V24.5605C141.896 25.515 143.582 26.1682 145.345 26.1682C149.151 26.1682 151.45 23.3044 151.349 19.3353C151.246 15.2909 148.87 12.8542 145.319 12.8542C143.505 12.8542 141.794 13.6329 141.078 14.7885L140.874 13.2561H137.272V31.8454ZM141.232 19.5363C141.232 17.6523 142.509 16.3963 144.349 16.3963C146.213 16.3963 147.388 17.6774 147.388 19.5363C147.388 21.3953 146.213 22.6764 144.349 22.6764C142.509 22.6764 141.232 21.4203 141.232 19.5363Z" fill="#0077B6"/>
<path d="M151.767 21.8474C151.869 24.3846 153.913 26.143 157.132 26.143C160.223 26.143 162.37 24.5353 162.37 21.9479C162.37 20.089 161.246 18.858 159.15 18.3556L156.877 17.8029C156.06 17.602 155.549 17.401 155.549 16.7478C155.549 16.0947 156.084 15.6677 156.877 15.6677C157.771 15.6677 158.358 16.2455 158.333 17.0995H161.884C161.781 14.487 159.764 12.8542 156.953 12.8542C154.118 12.8542 151.998 14.5122 151.998 17.0242C151.998 18.7073 152.943 20.089 155.471 20.7421L157.719 21.3198C158.384 21.4957 158.664 21.7971 158.664 22.2241C158.664 22.8522 158.077 23.2542 157.081 23.2542C155.931 23.2542 155.318 22.7266 155.318 21.8474H151.767Z" fill="#0077B6"/>
<path d="M168.391 26.143C169.95 26.143 171.508 25.4396 172.299 24.4097L172.556 25.8165H176.26V13.2561H172.325V19.7875C172.325 21.6715 171.764 22.7014 169.95 22.7014C168.544 22.7014 167.625 22.0735 167.625 19.7373V13.2561H163.69V21.144C163.69 24.1334 165.377 26.143 168.391 26.143Z" fill="#0077B6"/>
<path d="M182.498 25.8165V18.9585C182.498 16.8483 183.648 16.2455 184.772 16.2455C186.023 16.2455 186.841 16.9991 186.841 18.5566V25.8165H190.724V18.9585C190.724 16.8233 191.848 16.2204 192.972 16.2204C194.223 16.2204 195.067 16.9739 195.067 18.5566V25.8165H198.899V17.602C198.899 14.7383 197.366 12.8291 194.07 12.8291C192.232 12.8291 190.724 13.7082 190.06 15.0648C189.294 13.7082 187.965 12.8291 185.844 12.8291C184.44 12.8291 183.137 13.4571 182.371 14.4619L182.218 13.2561H178.538V25.8165H182.498Z" fill="#0077B6"/>
<path d="M0 18.4016C0 8.23865 8.37829 0 18.7134 0H43.2749C53.6101 0 61.9883 8.23865 61.9883 18.4016V36.8031H18.7134C8.37829 36.8031 0 28.5645 0 18.4016Z" fill="#0077B6"/>
<path d="M43.2749 6.9006H18.7135C12.254 6.9006 7.01755 12.0498 7.01755 18.4016C7.01755 24.7534 12.254 29.9026 18.7135 29.9026H43.2749C49.7343 29.9026 54.9708 24.7534 54.9708 18.4016C54.9708 12.0498 49.7343 6.9006 43.2749 6.9006Z" fill="#0096C7"/>
<path d="M18.7135 24.152C21.9432 24.152 24.5614 21.5775 24.5614 18.4016C24.5614 15.2256 21.9432 12.6511 18.7135 12.6511C15.4837 12.6511 12.8655 15.2256 12.8655 18.4016C12.8655 21.5775 15.4837 24.152 18.7135 24.152Z" fill="black"/>
<path d="M16.3743 17.2515C17.0202 17.2515 17.5439 16.7365 17.5439 16.1014C17.5439 15.4662 17.0202 14.9513 16.3743 14.9513C15.7283 14.9513 15.2047 15.4662 15.2047 16.1014C15.2047 16.7365 15.7283 17.2515 16.3743 17.2515Z" fill="white"/>
<path d="M44.4445 24.152C47.6742 24.152 50.2924 21.5775 50.2924 18.4016C50.2924 15.2256 47.6742 12.6511 44.4445 12.6511C41.2147 12.6511 38.5965 15.2256 38.5965 18.4016C38.5965 21.5775 41.2147 24.152 44.4445 24.152Z" fill="black"/>
<path d="M42.1053 17.2515C42.7512 17.2515 43.2748 16.7365 43.2748 16.1014C43.2748 15.4662 42.7512 14.9513 42.1053 14.9513C41.4593 14.9513 40.9357 15.4662 40.9357 16.1014C40.9357 16.7365 41.4593 17.2515 42.1053 17.2515Z" fill="white"/>
</g>
<defs>
<clipPath id="clip0_255_67">
<rect width="200" height="36.8031" fill="white"/>
</clipPath>
</defs>
</svg>
